PathFileType	4	(X/Y/Z)	/Users/itak/Documents/Research/Walk-IL/dataset/trc/00167_00008.trc
DataRate	CameraRate	NumFrames	NumMarkers	Units	OrigDataRate	OrigDataStartFrame	OrigNumFrames
100.000000	100.000000	4	54	mm	100.000000	0	629
Frame#	Time	RPSI			LPSI			L3			STRN			T10			C7			CLAV			RBAK			LBAK			LSHO			LUPA			LAEL			LAOL			LWTS			LWPS			LFRA			LIFD			LHPS			LHTS			RSHO			RUPA			RAEL			RAOL			RWTS			RWPS			RFRA			RIFD			RHTS			RHPS			RBHD			LFHD			RFHD			LBHD			LHIP			RHIP			RASI			LASI			LKNE			LTHI			LANK			LTIP			LTOE			LMT1			LMT5			LHEE			RKNE			RTHI			RANK			RTIP			RTOE			RMT1			RMT5			RHEE			*53			
		X1	Y1	Z1	X2	Y2	Z2	X3	Y3	Z3	X4	Y4	Z4	X5	Y5	Z5	X6	Y6	Z6	X7	Y7	Z7	X8	Y8	Z8	X9	Y9	Z9	X10	Y10	Z10	X11	Y11	Z11	X12	Y12	Z12	X13	Y13	Z13	X14	Y14	Z14	X15	Y15	Z15	X16	Y16	Z16	X17	Y17	Z17	X18	Y18	Z18	X19	Y19	Z19	X20	Y20	Z20	X21	Y21	Z21	X22	Y22	Z22	X23	Y23	Z23	X24	Y24	Z24	X25	Y25	Z25	X26	Y26	Z26	X27	Y27	Z27	X28	Y28	Z28	X29	Y29	Z29	X30	Y30	Z30	X31	Y31	Z31	X32	Y32	Z32	X33	Y33	Z33	X34	Y34	Z34	X35	Y35	Z35	X36	Y36	Z36	X37	Y37	Z37	X38	Y38	Z38	X39	Y39	Z39	X40	Y40	Z40	X41	Y41	Z41	X42	Y42	Z42	X43	Y43	Z43	X44	Y44	Z44	X45	Y45	Z45	X46	Y46	Z46	X47	Y47	Z47	X48	Y48	Z48	X49	Y49	Z49	X50	Y50	Z50	X51	Y51	Z51	X52	Y52	Z52	X53	Y53	Z53	X54	Y54	Z54	

1	0	-1909.265502929688	1055.611694335938	-25.40444374084473	-1905.079956054688	1053.548950195312	-150.4577941894531	-1906.986206054688	1091.406494140625	-85.10894012451172	-1651.17041015625	1305.933227539062	-93.17433929443359	-1945.638549804688	1246.457885742188	-93.62229919433594	-1887.173583984375	1517.381103515625	-108.6734161376953	-1681.682006835938	1419.255737304688	-103.5058517456055	-1949.396606445312	1341.34423828125	4.083057403564453	-1891.668212890625	1491.82470703125	-210.6419982910156	-1812.675048828125	1479.537231445312	-288.62158203125	-1836.24853515625	1344.997436523438	-361.8788452148438	-1806.565673828125	1124.738159179688	-373.9643859863281	-1861.706665039062	1110.885864257812	-306.6502075195312	-1693.929931640625	897.3384399414062	-318.5061950683594	-1768.180053710938	873.0667724609375	-372.0400085449219	-1787.055053710938	1014.487182617188	-382.6993713378906	-1677.77587890625	711.3509521484375	-292.82568359375	-1745.401245117188	804.0919189453125	-362.2899780273438	-1678.803955078125	818.4798583984375	-334.3535461425781	-1823.635131835938	1500.816650390625	72.48353576660156	-1839.178833007812	1434.603271484375	144.4325866699219	-1830.435913085938	1144.760131835938	201.3434753417969	-1838.429931640625	1135.738159179688	102.7611465454102	-1677.200439453125	925.0867309570312	182.1517028808594	-1749.162231445312	906.3576049804688	233.0809478759766	-1799.317504882812	1074.923950195312	219.8467407226562	-1652.61083984375	736.6494140625	166.5120849609375	-1646.450561523438	832.9918823242188	192.3005828857422	-1716.562622070312	824.0425415039062	230.9373321533203	-1847.491088867188	1680.657836914062	-35.15099334716797	-1705.309448242188	1735.172241210938	-192.324462890625	-1686.147216796875	1745.062377929688	-64.75391387939453	-1873.18359375	1676.24267578125	-170.2827606201172	-1799.345703125	990.5646362304688	-266.2530212402344	-1760.483154296875	1014.801818847656	101.4040069580078	-1672.369750976562	1043.845947265625	46.38796997070312	-1675.386474609375	1029.12353515625	-211.3636627197266	-1795.650024414062	495.2337341308594	-235.6055755615234	-1783.08056640625	637.5449829101562	-262.0018920898438	-1893.00830078125	41.39668655395508	-242.1963043212891	-1844.17431640625	276.1576843261719	-252.5613708496094	-1673.201538085938	38.78635787963867	-243.0585174560547	-1717.40966796875	39.65165328979492	-188.9217529296875	-1791.431030273438	32.23812484741211	-294.3453979492188	-1934.49658203125	40.876220703125	-166.2939453125	-1769.241455078125	513.987548828125	84.10301971435547	-1708.9462890625	782.4096069335938	110.4203262329102	-1869.349731445312	38.21432876586914	87.01670837402344	-1765.144165039062	397.0879516601562	67.32904052734375	-1645.130615234375	38.0390625	52.04767608642578	-1702.252319335938	36.86217880249023	6.660098075866699	-1757.947143554688	34.05300903320312	121.3770904541016	-1919.8876953125	36.81745147705078	20.40277099609375	nan	nan	nan	
2	0.01	-1909.272583007812	1055.596557617188	-25.47055435180664	-1904.932983398438	1053.516235351562	-150.4999237060547	-1907.002685546875	1091.410278320312	-85.2093505859375	-1651.117309570312	1305.9140625	-92.99793243408203	-1945.580688476562	1246.41552734375	-93.75576782226562	-1887.14697265625	1517.364501953125	-108.7682189941406	-1681.660278320312	1419.237670898438	-103.386474609375	-1949.457885742188	1341.342895507812	3.934081077575684	-1891.541748046875	1491.7939453125	-210.7349395751953	-1812.442749023438	1479.48828125	-288.6216430664062	-1835.953247070312	1344.989013671875	-361.9485778808594	-1806.270385742188	1124.736694335938	-374.1618347167969	-1861.467529296875	1110.854858398438	-306.9053955078125	-1693.759521484375	897.2416381835938	-318.7913818359375	-1768.00244140625	873.053955078125	-372.4184265136719	-1786.784423828125	1014.508911132812	-382.96337890625	-1677.763427734375	711.176513671875	-293.2240600585938	-1745.277587890625	804.0440673828125	-362.721923828125	-1678.73193359375	818.3516845703125	-334.6512756347656	-1823.787841796875	1500.808227539062	72.42958831787109	-1839.395874023438	1434.607055664062	144.3780975341797	-1830.63720703125	1144.7490234375	201.2905120849609	-1838.588745117188	1135.747192382812	102.7540664672852	-1677.336181640625	925.107177734375	181.9859466552734	-1749.24609375	906.343994140625	232.9296417236328	-1799.474731445312	1074.887939453125	219.7924957275391	-1652.677124023438	736.704345703125	166.2312469482422	-1646.509643554688	832.9956665039062	192.0928955078125	-1716.602172851562	824.0324096679688	230.7321472167969	-1847.51025390625	1680.700927734375	-35.2918701171875	-1705.11572265625	1735.102905273438	-192.3057098388672	-1686.10498046875	1745.032958984375	-64.689453125	-1873.049682617188	1676.27880859375	-170.4594268798828	-1799.158325195312	990.5546264648438	-266.2339782714844	-1760.607666015625	1014.80078125	101.4912033081055	-1672.463745117188	1043.823974609375	46.50979995727539	-1675.23046875	1029.091064453125	-211.2064514160156	-1795.497314453125	495.2127075195312	-235.5093536376953	-1782.954711914062	637.553466796875	-261.9544677734375	-1892.997436523438	41.41140747070312	-242.1846160888672	-1844.119140625	276.1528930664062	-252.5222015380859	-1673.1923828125	38.78676605224609	-243.0536956787109	-1717.407836914062	39.64227294921875	-188.9117279052734	-1791.423950195312	32.25229263305664	-294.3402099609375	-1934.489624023438	40.88107681274414	-166.2896423339844	-1769.364501953125	513.99072265625	84.17875671386719	-1709.114624023438	782.3854370117188	110.5592651367188	-1869.365112304688	38.20561218261719	87.01242065429688	-1765.25390625	397.0867614746094	67.38804626464844	-1645.128784179688	38.04124069213867	52.05366516113281	-1702.263305664062	36.86848831176758	6.670071601867676	-1757.955444335938	34.04038619995117	121.3882904052734	-1919.8955078125	36.81856918334961	20.39491844177246	nan	nan	nan	
3	0.02	-1909.279418945312	1055.576904296875	-25.55014801025391	-1904.745361328125	1053.473999023438	-150.5551300048828	-1907.018432617188	1091.409057617188	-85.33590698242188	-1651.044189453125	1305.889404296875	-92.76763153076172	-1945.503295898438	1246.356689453125	-93.92809295654297	-1887.114868164062	1517.338500976562	-108.8877334594727	-1681.634887695312	1419.214965820312	-103.2289199829102	-1949.537353515625	1341.338012695312	3.744283199310303	-1891.3779296875	1491.750854492188	-210.8565521240234	-1812.140625	1479.42333984375	-288.6177673339844	-1835.565551757812	1344.976318359375	-362.0384216308594	-1805.869018554688	1124.73681640625	-374.4205322265625	-1861.14501953125	1110.812133789062	-307.2460327148438	-1693.530029296875	897.1156616210938	-319.1640625	-1767.75048828125	873.0416259765625	-372.9243469238281	-1786.412231445312	1014.539794921875	-383.3114929199219	-1677.728637695312	710.9489135742188	-293.7466735839844	-1745.099609375	803.9890747070312	-363.2976684570312	-1678.615234375	818.1898193359375	-335.0460815429688	-1823.986938476562	1500.794677734375	72.36359405517578	-1839.678588867188	1434.610595703125	144.3120574951172	-1830.890258789062	1144.72998046875	201.2282562255859	-1838.798950195312	1135.7568359375	102.7472229003906	-1677.51123046875	925.1329345703125	181.7534027099609	-1749.352172851562	906.3245849609375	232.7225036621094	-1799.67529296875	1074.837646484375	219.7212524414062	-1652.7587890625	736.7727661132812	165.8428497314453	-1646.583374023438	832.998046875	191.7929077148438	-1716.637939453125	824.0149536132812	230.4539184570312	-1847.529052734375	1680.754760742188	-35.46765518188477	-1704.85888671875	1735.010620117188	-192.2714538574219	-1686.043334960938	1744.988891601562	-64.59601593017578	-1872.873779296875	1676.33056640625	-170.6804962158203	-1798.908935546875	990.540771484375	-266.2022705078125	-1760.766357421875	1014.794555664062	101.6016387939453	-1672.587890625	1043.799072265625	46.67805099487305	-1675.009887695312	1029.047119140625	-210.9965209960938	-1795.306030273438	495.1858215332031	-235.3793792724609	-1782.790649414062	637.5618286132812	-261.8828125	-1892.983154296875	41.433837890625	-242.1665802001953	-1844.045288085938	276.1483764648438	-252.4654998779297	-1673.179077148438	38.78709030151367	-243.0467529296875	-1717.40380859375	39.62844467163086	-188.8979644775391	-1791.414428710938	32.27089691162109	-294.331298828125	-1934.4814453125	40.88712692260742	-166.28076171875	-1769.523559570312	513.9956665039062	84.28099822998047	-1709.31787109375	782.3491821289062	110.7413864135742	-1869.385131835938	38.19402694702148	87.00669097900391	-1765.397094726562	397.08544921875	67.46798706054688	-1645.127075195312	38.04433822631836	52.06224060058594	-1702.2783203125	36.87664794921875	6.682653903961182	-1757.96630859375	34.02413558959961	121.402214050293	-1919.9052734375	36.81777954101562	20.38411712646484	nan	nan	nan	
4	0.03	-1909.2841796875	1055.552978515625	-25.63717079162598	-1904.52490234375	1053.423706054688	-150.6213684082031	-1907.028686523438	1091.399536132812	-85.481689453125	-1650.950927734375	1305.860107421875	-92.48995208740234	-1945.407470703125	1246.281372070312	-94.13246917724609	-1887.079711914062	1517.301635742188	-109.0261001586914	-1681.607543945312	1419.188598632812	-103.0367889404297	-1949.632202148438	1341.328002929688	3.521914958953857	-1891.182250976562	1491.694946289062	-211.0029907226562	-1811.778930664062	1479.34375	-288.6079711914062	-1835.096435546875	1344.95849609375	-362.1444702148438	-1805.364379882812	1124.7392578125	-374.7327880859375	-1860.742797851562	1110.757568359375	-307.6653747558594	-1693.242797851562	896.9650268554688	-319.6135864257812	-1767.420043945312	873.0324096679688	-373.5486450195312	-1785.939208984375	1014.580322265625	-383.7351379394531	-1677.662719726562	710.6758422851562	-294.3809509277344	-1744.862426757812	803.932373046875	-364.0061645507812	-1678.4443359375	818.0029907226562	-335.5299987792969	-1824.22607421875	1500.775268554688	72.2900390625	-1840.018188476562	1434.612670898438	144.2393035888672	-1831.183227539062	1144.700805664062	201.16162109375	-1839.056518554688	1135.765747070312	102.7412567138672	-1677.71875	925.1625366210938	181.4522552490234	-1749.475830078125	906.2987060546875	232.460693359375	-1799.9111328125	1074.7724609375	219.6344451904297	-1652.851318359375	736.8506469726562	165.3463592529297	-1646.66796875	832.9979248046875	191.3947143554688	-1716.662353515625	823.9884643554688	230.1045684814453	-1847.543823242188	1680.81640625	-35.66831588745117	-1704.544067382812	1734.89697265625	-192.2163543701172	-1685.960693359375	1744.927978515625	-64.47095489501953	-1872.660034179688	1676.398559570312	-170.9338836669922	-1798.602172851562	990.52294921875	-266.15478515625	-1760.95361328125	1014.780151367188	101.730094909668	-1672.7392578125	1043.774536132812	46.89284133911133	-1674.721801757812	1028.992431640625	-210.7377319335938	-1795.0859375	495.1541442871094	-235.2171478271484	-1782.592407226562	637.56787109375	-261.7829284667969	-1892.9658203125	41.46506500244141	-242.1412353515625	-1843.953857421875	276.1450500488281	-252.3898315429688	-1673.161499023438	38.78718566894531	-243.0375518798828	-1717.39697265625	39.60966873168945	-188.8804626464844	-1791.402587890625	32.29356384277344	-294.3177795410156	-1934.472900390625	40.89400100708008	-166.2659149169922	-1769.713012695312	514.002685546875	84.40869140625	-1709.543579101562	782.2996826171875	110.9633407592773	-1869.409301757812	38.17986679077148	86.99962615966797	-1765.569458007812	397.0841674804688	67.56804656982422	-1645.1259765625	38.04833221435547	52.07345581054688	-1702.297119140625	36.88645553588867	6.697336196899414	-1757.9794921875	34.00474548339844	121.4181137084961	-1919.916259765625	36.81406784057617	20.3704776763916	nan	nan	nan	
